# Aspose.3D Wavefront OBJ Exporter
# Copyright 2004-2021 Aspose Pty Ltd.
# File created: 10/25/2021 18:04:53

mtllib material.lib

#
# object obj_7312256
#

v 0.18540166860588324 0.27759918680922624 0.10959022774914526
v 0.18540159118223444 -0.27783386700130564 -0.27215319701374452
v 0.18540159118223444 0.27759918680922624 -0.27215319701374452
v 0.18540166860588324 -0.27783386700130564 0.10959022774914526
v -0.19634191116460096 0.27759918680922624 -0.27215311959008004
v -0.1963418337409522 -0.27783386700130564 0.1095903051728098
v -0.1963418337409522 0.27759918680922624 0.1095903051728098
v -0.19634191116460096 -0.27783386700130564 -0.27215311959008004
v -0.1963418337409522 0.27759918680922624 0.1095903051728098
v 0.18540166860588324 -0.27783386700130564 0.10959022774914526
v 0.18540166860588324 0.27759918680922624 0.10959022774914526
v -0.1963418337409522 -0.27783386700130564 0.1095903051728098
v 0.18540159118223444 0.27759918680922624 -0.27215319701374452
v -0.19634191116460096 -0.27783386700130564 -0.27215311959008004
v -0.19634191116460096 0.27759918680922624 -0.27215311959008004
v 0.18540159118223444 -0.27783386700130564 -0.27215319701374452
v 0.18540159118223444 0.27759918680922624 -0.27215319701374452
v -0.1963418337409522 0.27759918680922624 0.1095903051728098
v 0.18540166860588324 0.27759918680922624 0.10959022774914526
v -0.19634191116460096 0.27759918680922624 -0.27215311959008004
v -0.19634191116460096 -0.27783386700130564 -0.27215311959008004
v 0.18540166860588324 -0.27783386700130564 0.10959022774914526
v -0.1963418337409522 -0.27783386700130564 0.1095903051728098
v 0.18540159118223444 -0.27783386700130564 -0.27215319701374452
# 24 vertices

vn 0.99999999999997936 0 -2.0281593304805057E-07
vn 0.99999999999997936 0 -2.0281593304805057E-07
vn 0.99999999999997936 0 -2.0281593304805057E-07
vn 0.99999999999997936 0 -2.0281593304805057E-07
vn -0.99999999999997936 0 2.0281593304805057E-07
vn -0.99999999999997936 0 2.0281593304805057E-07
vn -0.99999999999997936 0 2.0281593304805057E-07
vn -0.99999999999997936 0 2.0281593304805057E-07
vn 2.0281593304805057E-07 0 0.99999999999997936
vn 2.0281593304805057E-07 0 0.99999999999997936
vn 2.0281593304805057E-07 0 0.99999999999997936
vn 2.0281593304805057E-07 0 0.99999999999997936
vn -2.0281593304805057E-07 0 -0.99999999999997936
vn -2.0281593304805057E-07 0 -0.99999999999997936
vn -2.0281593304805057E-07 0 -0.99999999999997936
vn -2.0281593304805057E-07 0 -0.99999999999997936
vn 0 1 0
vn 0 1 0
vn 0 1 0
vn 0 1 0
vn 0 -1 0
vn 0 -1 0
vn 0 -1 0
vn 0 -1 0
# 24 vertex normals

g obj_7312256
usemtl mat_48588682
s 1
f 1//1 2//2 3//3
f 1//1 4//4 2//2
f 5//5 6//6 7//7
f 5//5 8//8 6//6
f 9//9 10//10 11//11
f 9//9 12//12 10//10
f 13//13 14//14 15//15
f 13//13 16//16 14//14
f 17//17 18//18 19//19
f 17//17 20//20 18//18
f 21//21 22//22 23//23
f 21//21 24//24 22//22
#12 polygons

